<?xml version="1.0" encoding="utf-8"?>
<!-- Generator: Adobe Illustrator 27.0.0, SVG Export Plug-In . SVG Version: 6.00 Build 0)  -->
<svg version="1.1" id="Layer_1" xmlns="http://www.w3.org/2000/svg" xmlns:xlink="http://www.w3.org/1999/xlink" x="0px" y="0px"
	 viewBox="0 0 48 48" style="enable-background:new 0 0 48 48;" xml:space="preserve">
<style type="text/css">
	.st0{fill:#fff;}
</style>
<path class="st0" d="M16.2,43.97c-1,0-1.85-0.35-2.55-1.05c-0.7-0.7-1.05-1.55-1.05-2.55s0.35-1.85,1.05-2.55
	c0.7-0.7,1.55-1.05,2.55-1.05c1,0,1.85,0.35,2.55,1.05c0.7,0.7,1.05,1.55,1.05,2.55s-0.35,1.85-1.05,2.55
	C18.05,43.62,17.2,43.97,16.2,43.97z M36.2,43.97c-1,0-1.85-0.35-2.55-1.05c-0.7-0.7-1.05-1.55-1.05-2.55s0.35-1.85,1.05-2.55
	c0.7-0.7,1.55-1.05,2.55-1.05s1.85,0.35,2.55,1.05c0.7,0.7,1.05,1.55,1.05,2.55s-0.35,1.85-1.05,2.55
	C38.05,43.62,37.2,43.97,36.2,43.97z M12.1,7.98h29.45c0.77,0,1.35,0.35,1.75,1.05c0.4,0.7,0.4,1.4,0,2.1l-6.75,12.15
	c-0.37,0.63-0.84,1.14-1.42,1.52c-0.58,0.38-1.22,0.57-1.92,0.58H18.05l-2.8,5.2H39.8v3H15.7c-1.4,0-2.41-0.47-3.02-1.4
	c-0.62-0.93-0.61-1.98,0.02-3.15l3.2-5.9L8.3,7.02H4.4v-3h5.85L12.1,7.98z"/>
</svg>
