<?xml version="1.0" encoding="utf-8"?>
<!-- Generator: Adobe Illustrator 27.0.0, SVG Export Plug-In . SVG Version: 6.00 Build 0)  -->
<svg version="1.1" id="Layer_1" xmlns="http://www.w3.org/2000/svg" xmlns:xlink="http://www.w3.org/1999/xlink" x="0px" y="0px"
	 viewBox="0 0 48 48" style="enable-background:new 0 0 48 48;" xml:space="preserve">
<path fill="#2c3c3f" d="M7.4,48c-0.9,0-1.7-0.3-2.3-1c-0.7-0.7-1-1.4-1-2.3V15.3c0-0.9,0.3-1.7,1-2.3c0.7-0.7,1.4-1,2.3-1h6.1c0-2.9,1-5.4,2.9-7.5
	s4.4-3.1,7.3-3.1s5.4,1,7.6,3.1c2.1,2.1,3.2,4.5,3.2,7.5h6.1c0.9,0,1.7,0.3,2.3,1c0.7,0.7,1,1.4,1,2.3v29.4c0,0.9-0.3,1.7-1,2.3
	c-0.7,0.7-1.4,1-2.3,1H7.4z M24,28.6c2.9,0,5.4-1.1,7.6-3.2s3.2-4.7,3.2-7.6h-3.3c0,2-0.7,3.8-2.2,5.3S26,25.3,24,25.3
	s-3.8-0.7-5.3-2.2s-2.2-3.2-2.2-5.3h-3.3c0,2.9,1.1,5.4,3.2,7.6S21.1,28.6,24,28.6z M16.8,12h14.4c0-2-0.7-3.7-2.1-5.1
	C27.7,5.5,26,4.8,24,4.8s-3.7,0.7-5.1,2.1C17.5,8.2,16.8,10,16.8,12z"/>
</svg>
